<?xml version="1.0" encoding="utf-8"?><svg viewBox="0 0 120 120" xmlns="http://www.w3.org/2000/svg" xmlns:xlink="http://www.w3.org/1999/xlink"><style>:root>svg{display:none}:root>svg:target{display:block}</style><svg fill="none" viewBox="0 0 48 12" id="arrow-left-dark" xmlns="http://www.w3.org/2000/svg"><path opacity=".1" fill-rule="evenodd" clip-rule="evenodd" d="M10 11.773L0 6 10 .226V5h38v2H10v4.773z" fill="#000"/></svg><svg fill="none" viewBox="0 0 48 12" id="arrow-left-main" xmlns="http://www.w3.org/2000/svg"><path opacity=".1" fill-rule="evenodd" clip-rule="evenodd" d="M10 11.773L0 6 10 .226V5h38v2H10v4.773z" fill="#fff"/></svg><svg fill="none" viewBox="0 0 48 12" id="arrow-right-dark" xmlns="http://www.w3.org/2000/svg"><path fill-rule="evenodd" clip-rule="evenodd" d="M38 .227L48 6l-10 5.774V7H0V5h38V.227z" fill="#689FF2"/></svg><svg fill="none" viewBox="0 0 48 12" id="arrow-right-main" xmlns="http://www.w3.org/2000/svg"><path fill-rule="evenodd" clip-rule="evenodd" d="M38 .227L48 6l-10 5.774V7H0V5h38V.227z" fill="#85BBB1"/></svg><svg fill="none" viewBox="0 0 18 18" id="moon-icon" xmlns="http://www.w3.org/2000/svg"><path d="M15.566 15.33a9.074 9.074 0 002.42-4.327c.108-.454-.45-.761-.779-.43l-.012.012a6.91 6.91 0 01-9.93-.16A6.9 6.9 0 017.435.79c.33-.328.022-.884-.43-.776A9.068 9.068 0 002.712 2.4a9.103 9.103 0 00-.044 12.92 9.112 9.112 0 0012.898.009z" fill="#fff"/></svg><svg fill="none" viewBox="0 0 120 120" id="play-icon" xmlns="http://www.w3.org/2000/svg"><circle opacity=".3" cx="60" cy="60" r="60" fill="#586291"/><path d="M81.317 58.615a1 1 0 010 1.77L50.716 76.483a1 1 0 01-1.466-.885V43.402a1 1 0 011.465-.885l30.602 16.098z" fill="#262A3F"/></svg><svg fill="none" viewBox="0 0 120 120" id="play-icon-dark" xmlns="http://www.w3.org/2000/svg"><circle opacity=".3" cx="60" cy="60" r="60" fill="#689FF2"/><path d="M81.317 58.615a1 1 0 010 1.77L50.716 76.483a1 1 0 01-1.466-.885V43.402a1 1 0 011.465-.885l30.602 16.098z" fill="#689FF2"/></svg><svg fill="none" viewBox="0 0 102 84" id="quote-icon" xmlns="http://www.w3.org/2000/svg"><path d="M68.683 45.195c-.485-1.712-.731-3.68-.731-5.91 0-6.076 2.31-12.076 6.986-18.007 4.897-5.94 10.638-10.28 17.222-13.03l.495-.208-.24-.479-2.904-5.785-.216-.432-.44.202c-11.25 5.174-19.718 12.087-25.37 20.752h0l-.005.008c-5.43 8.656-8.141 18.391-8.141 29.194 0 8.43 1.844 15.6 5.56 21.481C65.297 79.99 71.805 83.5 80.356 83.5c5.93 0 10.898-1.975 14.869-5.931 4.18-4.166 6.276-9.222 6.276-15.14 0-6.33-2.085-11.4-6.286-15.15-3.97-3.95-8.934-5.922-14.86-5.922-4.377 0-8.273 1.28-11.67 3.838zm-54.839 0c-.485-1.712-.731-3.68-.731-5.91 0-6.076 2.31-12.076 6.986-18.007 4.898-5.94 10.638-10.28 17.223-13.03l.494-.208-.24-.479-2.903-5.785-.217-.432-.44.202C22.767 6.72 14.299 13.633 8.647 22.298h0l-.005.008C3.211 30.962.5 40.697.5 51.5c0 8.43 1.845 15.6 5.561 21.481C10.458 79.99 16.965 83.5 25.516 83.5c5.93 0 10.898-1.975 14.87-5.931 4.18-4.166 6.275-9.222 6.275-15.14 0-6.33-2.085-11.4-6.286-15.15-3.969-3.95-8.934-5.922-14.859-5.922-4.377 0-8.274 1.28-11.671 3.838z" stroke="url(#hpaint0_linear)"/><defs><linearGradient id="hpaint0_linear" x1=".75" y1="55.409" x2="121.357" y2="72.969" gradientUnits="userSpaceOnUse"><stop stop-color="#F1897B"/><stop offset="1" stop-color="#F1897B" stop-opacity="0"/></linearGradient></defs></svg><svg fill="none" viewBox="0 0 102 84" id="quote-icon-dark" xmlns="http://www.w3.org/2000/svg"><path d="M68.683 45.195c-.485-1.712-.731-3.68-.731-5.91 0-6.076 2.31-12.076 6.986-18.007 4.897-5.94 10.638-10.28 17.222-13.03l.495-.208-.24-.479-2.904-5.785-.216-.432-.44.202c-11.25 5.174-19.718 12.087-25.37 20.752h0l-.005.008c-5.43 8.656-8.141 18.391-8.141 29.194 0 8.43 1.844 15.6 5.56 21.481C65.297 79.99 71.805 83.5 80.356 83.5c5.93 0 10.898-1.975 14.869-5.931 4.18-4.166 6.276-9.222 6.276-15.14 0-6.33-2.085-11.4-6.286-15.15-3.97-3.95-8.934-5.922-14.86-5.922-4.377 0-8.273 1.28-11.67 3.838zm-54.839 0c-.485-1.712-.731-3.68-.731-5.91 0-6.076 2.31-12.076 6.986-18.007 4.898-5.94 10.638-10.28 17.223-13.03l.494-.208-.24-.479-2.903-5.785-.217-.432-.44.202C22.767 6.72 14.299 13.633 8.647 22.298h0l-.005.008C3.211 30.962.5 40.697.5 51.5c0 8.43 1.845 15.6 5.561 21.481C10.458 79.99 16.965 83.5 25.516 83.5c5.93 0 10.898-1.975 14.87-5.931 4.18-4.166 6.275-9.222 6.275-15.14 0-6.33-2.085-11.4-6.286-15.15-3.969-3.95-8.934-5.922-14.859-5.922-4.377 0-8.274 1.28-11.671 3.838z" stroke="url(#ipaint0_linear)"/><defs><linearGradient id="ipaint0_linear" x1=".75" y1="55.409" x2="121.357" y2="72.969" gradientUnits="userSpaceOnUse"><stop stop-color="#53F3CD"/><stop offset="1" stop-color="#53F3CD" stop-opacity="0"/></linearGradient></defs></svg><svg fill="none" viewBox="0 0 20 20" id="sun-icon" xmlns="http://www.w3.org/2000/svg"><path fill-rule="evenodd" clip-rule="evenodd" d="M9.6 3.721h.8a.457.457 0 00.456-.456V.457A.457.457 0 0010.4 0h-.8a.457.457 0 00-.456.457v2.808c0 .252.204.456.457.456zm.4 11.896a5.616 5.616 0 100-11.233 5.616 5.616 0 000 11.232zM16.28 10.4v-.8c0-.252.204-.456.456-.456h2.808c.253 0 .457.204.457.457v.799a.457.457 0 01-.457.456h-2.808a.457.457 0 01-.456-.456zm-5.88 9.6a.457.457 0 00.457-.457v-2.808a.457.457 0 00-.456-.456h-.8a.457.457 0 00-.456.456v2.808c0 .253.204.457.457.457h.799zm-7.134-9.144H.457A.457.457 0 010 10.4v-.8c0-.252.204-.456.457-.456h2.808c.252 0 .456.204.456.457v.799a.457.457 0 01-.456.456zm11.457-5.013a.457.457 0 00.646 0l1.986-1.986a.457.457 0 000-.646l-.566-.565a.457.457 0 00-.645 0l-1.986 1.986a.457.457 0 000 .646l.565.565zm2.632 10.946l-.565.565a.457.457 0 01-.646 0l-1.986-1.986a.457.457 0 010-.646l.565-.565a.457.457 0 01.646 0l1.986 1.986a.457.457 0 010 .646zm-13.497.565l1.986-1.986a.456.456 0 000-.646l-.565-.565a.457.457 0 00-.646 0l-1.986 1.986a.457.457 0 000 .646l.566.565a.457.457 0 00.645 0zm1.42-11.511a.457.457 0 01-.645 0L2.646 3.857a.457.457 0 010-.646l.566-.565a.457.457 0 01.645 0l1.986 1.986a.457.457 0 010 .646l-.565.565z" fill="#fff"/></svg></svg>